<svg version="1.1" id="Layer_1" xmlns="http://www.w3.org/2000/svg" xmlns:xlink="http://www.w3.org/1999/xlink" x="0px" y="0px"
	 width="260px" height="75px" viewBox="0 0 260 75" enable-background="new 0 0 260 75" xml:space="preserve">

<symbol  id="New_Symbol" viewBox="0.563 -66.238 169.396 64.784">

	<g>
		<path d="M0.681-15.137h10.663v-2.801H3.762v-2.98h6.681v-2.801H3.762v-5.421H0.681V-15.137z"/>
		<path d="M13.541-14.536h3.201v-2.701h-3.201V-14.536z M13.621-18.417h3.041V-29.14h-3.041V-18.417z"/>
		<path d="M19.521-18.417h3.041v-1.521c0.7,0.9,1.6,1.72,3.141,1.72c2.3,0,3.641-1.52,3.641-3.98v-6.941h-3.041v5.981
			c0,1.44-0.68,2.181-1.84,2.181c-1.161,0-1.9-0.74-1.9-2.181v-5.981h-3.041V-18.417z"/>
		<path d="M31.46-23.839v0.04c0,3.061,2.181,5.581,5.302,5.581c3.58,0,5.221-2.78,5.221-5.82c0-0.24-0.02-0.521-0.04-0.801H34.48
			c0.301-1.38,1.261-2.101,2.621-2.101c1.021,0,1.761,0.32,2.601,1.101l1.74-1.54c-1-1.24-2.44-2.001-4.381-2.001
			C33.841-29.38,31.46-27.119,31.46-23.839z M39.021-22.938c-0.18,1.36-0.979,2.28-2.26,2.28c-1.261,0-2.081-0.899-2.32-2.28H39.021
			z"/>
		<path d="M43.2-31.12c1.38,0.14,2.06,0.84,1.96,1.98h-1.24v3.2h3.24v-2.7c0-2.641-1.319-3.7-3.7-3.74L43.2-31.12z"/>
		<path d="M56.08-15.137h5.461c4.4,0,7.441-3.021,7.441-6.961v-0.04c0-3.941-3.041-7.002-7.441-7.002H56.08V-15.137z M59.16-17.917
			v-8.442h2.381c2.521,0,4.221,1.701,4.221,4.182v0.04c0,2.48-1.7,4.221-4.221,4.221H59.16z"/>
		<path d="M71.459-14.536h3.201v-2.701h-3.201V-14.536z M71.539-18.417h3.041V-29.14h-3.041V-18.417z"/>
		<path d="M77.499-31.26l1.041,2.28c1.1-0.62,2.2-0.98,3.62-0.98c2.081,0,3.061,1,3.061,2.921v0.52c-0.899-1.08-1.88-1.74-3.5-1.74
			c-2.501,0-4.762,1.82-4.762,5.001v0.04c0,3.201,2.301,5.001,4.762,5.001c1.66,0,2.641-0.699,3.46-1.6v1.4h3.041v-8.302
			c0-1.921-0.46-3.321-1.36-4.222c-1-1-2.54-1.439-4.621-1.439C80.5-32.38,78.859-31.98,77.499-31.26z M85.221-23.259v0.04
			c0,1.461-1.14,2.48-2.62,2.48S80-21.758,80-23.219v-0.04c0-1.479,1.12-2.48,2.601-2.48S85.221-24.719,85.221-23.259z"/>
		<path d="M90.999-14.536H94.2v-2.701h-3.201V-14.536z M91.079-18.417h3.041V-29.14h-3.041V-18.417z"/>
		<path d="M97.479-26.099v5.081h-1.28v2.601h1.28v2.74h3.041v-2.74h2.521v-2.601h-2.521v-4.581c0-0.7,0.3-1.04,0.979-1.04
			c0.561,0,1.061,0.14,1.501,0.38v-2.44c-0.641-0.381-1.381-0.62-2.4-0.62C98.739-29.319,97.479-28.579,97.479-26.099z"/>
		<path d="M104.638-26.059v0.04c0,2.34,1.781,3.42,4.321,3.42c1.08,0,1.86-0.18,2.621-0.439v0.18c0,1.261-0.78,1.961-2.301,1.961
			c-1.16,0-1.98-0.221-2.961-0.58l-0.76,2.32c1.18,0.52,2.34,0.86,4.16,0.86c1.661,0,2.861-0.44,3.621-1.201
			c0.801-0.8,1.16-1.979,1.16-3.42v-6.222h-2.94v1.16c-0.74-0.82-1.761-1.36-3.24-1.36C106.299-29.34,104.638-28.18,104.638-26.059z
			 M111.619-25.358v0.54c-0.52,0.239-1.2,0.399-1.939,0.399c-1.301,0-2.101-0.52-2.101-1.48v-0.04c0-0.819,0.68-1.3,1.66-1.3
			C110.659-27.239,111.619-26.459,111.619-25.358z"/>
		<path d="M117.258-14.536h3.041V-29.14h-3.041V-14.536z"/>
		<path d="M122.318-31.12c1.38,0.14,2.06,0.84,1.96,1.98h-1.24v3.2h3.241v-2.7c0-2.641-1.32-3.7-3.701-3.74L122.318-31.12z"/>
		<path d="M134.237-26.059v0.04c0,2.34,1.781,3.42,4.321,3.42c1.08,0,1.86-0.18,2.621-0.439v0.18c0,1.261-0.78,1.961-2.301,1.961
			c-1.16,0-1.98-0.221-2.961-0.58l-0.76,2.32c1.18,0.52,2.34,0.86,4.16,0.86c1.661,0,2.861-0.44,3.621-1.201
			c0.801-0.8,1.16-1.979,1.16-3.42v-6.222h-2.94v1.16c-0.74-0.82-1.761-1.36-3.24-1.36C135.898-29.34,134.237-28.18,134.237-26.059z
			 M141.219-25.358v0.54c-0.52,0.239-1.2,0.399-1.939,0.399c-1.301,0-2.101-0.52-2.101-1.48v-0.04c0-0.819,0.68-1.3,1.66-1.3
			C140.259-27.239,141.219-26.459,141.219-25.358z"/>
		<path d="M146.718-18.417h3.041v-1.521c0.7,0.9,1.6,1.72,3.141,1.72c2.3,0,3.641-1.52,3.641-3.98v-6.941h-3.041v5.981
			c0,1.44-0.68,2.181-1.84,2.181c-1.161,0-1.9-0.74-1.9-2.181v-5.981h-3.041V-18.417z"/>
		<path d="M158.697-23.799v0.04c0,3.581,2.341,5.541,4.881,5.541c1.621,0,2.621-0.739,3.341-1.6v5.281h3.041V-29.14h-3.041v1.54
			c-0.74-1-1.76-1.74-3.341-1.74C161.078-29.34,158.697-27.379,158.697-23.799z M166.959-23.799v0.04c0,1.78-1.18,2.961-2.601,2.961
			c-1.42,0-2.62-1.16-2.62-2.961v-0.04c0-1.78,1.2-2.96,2.62-2.96C165.779-26.759,166.959-25.579,166.959-23.799z"/>
		<path d="M0.681-35.137h5.721c3.341,0,5.361-1.98,5.361-4.841v-0.04c0-3.241-2.521-4.921-5.661-4.921h-2.34v-4.201H0.681V-35.137z
			 M6.202-42.198c1.54,0,2.44,0.92,2.44,2.12v0.04c0,1.381-0.96,2.121-2.5,2.121h-2.38v-4.281H6.202z"/>
		<path d="M13.101-43.839v0.04c0,3.061,2.18,5.581,5.301,5.581c3.581,0,5.221-2.78,5.221-5.82c0-0.24-0.02-0.521-0.04-0.801h-7.461
			c0.3-1.38,1.26-2.101,2.621-2.101c1.02,0,1.761,0.32,2.601,1.101l1.74-1.54c-1-1.24-2.44-2.001-4.381-2.001
			C15.481-49.38,13.101-47.119,13.101-43.839z M20.662-42.938c-0.18,1.36-0.98,2.28-2.26,2.28c-1.26,0-2.08-0.899-2.32-2.28H20.662z
			"/>
		<path d="M25.881-38.417h3.041v-2.161c0.62,1.48,1.62,2.44,3.42,2.36v-3.181h-0.159c-2.021,0-3.261-1.22-3.261-3.78v-3.961h-3.041
			V-38.417z"/>
		<path d="M34.762-41.018h-1.261v2.5h1.261v0.681c0,1.18,0.3,2.04,0.859,2.601c0.561,0.56,1.381,0.84,2.461,0.84
			c0.96,0,1.601-0.12,2.16-0.3v-2.521c-0.439,0.16-0.86,0.26-1.38,0.26c-0.7,0-1.101-0.36-1.101-1.16v-0.42h2.461v-2.48h-2.421
			v-8.122h-3.04V-41.018z"/>
		<path d="M41.16-43.839v0.04c0,3.081,2.48,5.581,5.821,5.581c3.321,0,5.781-2.46,5.781-5.541v-0.04c0-3.08-2.48-5.581-5.821-5.581
			C43.621-49.38,41.16-46.919,41.16-43.839z M49.763-43.839v0.04c0,1.581-1.141,2.961-2.821,2.961c-1.74,0-2.78-1.34-2.78-2.921
			v-0.04c0-1.58,1.141-2.96,2.82-2.96C48.722-46.759,49.763-45.419,49.763-43.839z"/>
		<path d="M54.96-38.417h3.041v-2.161c0.62,1.48,1.62,2.44,3.42,2.36v-3.181h-0.159c-2.021,0-3.261-1.22-3.261-3.78v-3.961H54.96
			V-38.417z"/>
		<path d="M63.32-38.417h3.041v-1.521c0.7,0.9,1.62,1.72,3.16,1.72c1.4,0,2.461-0.62,3.021-1.7c0.94,1.101,2.061,1.7,3.521,1.7
			c2.261,0,3.621-1.359,3.621-3.94v-6.981h-3.04v5.981c0,1.44-0.641,2.181-1.781,2.181c-1.14,0-1.84-0.74-1.84-2.181v-5.981h-3.041
			v5.981c0,1.44-0.64,2.181-1.78,2.181c-1.14,0-1.84-0.74-1.84-2.181v-5.981H63.32V-38.417z"/>
		<path d="M82.38-34.536h3.201v-2.701H82.38V-34.536z M82.46-38.417h3.041V-49.14H82.46V-38.417z"/>
		<path d="M88.36-38.417h3.041v-1.521c0.7,0.9,1.6,1.72,3.141,1.72c2.3,0,3.641-1.52,3.641-3.98v-6.941h-3.041v5.981
			c0,1.44-0.68,2.181-1.84,2.181c-1.161,0-1.9-0.74-1.9-2.181v-5.981H88.36V-38.417z"/>
		<path d="M100.879-51.26l1.041,2.28c1.1-0.62,2.2-0.98,3.62-0.98c2.081,0,3.061,1,3.061,2.921v0.52c-0.899-1.08-1.88-1.74-3.5-1.74
			c-2.501,0-4.762,1.82-4.762,5.001v0.04c0,3.201,2.301,5.001,4.762,5.001c1.66,0,2.641-0.699,3.46-1.6v1.4h3.041v-8.302
			c0-1.921-0.46-3.321-1.36-4.222c-1-1-2.54-1.439-4.621-1.439C103.88-52.38,102.239-51.98,100.879-51.26z M108.601-43.259v0.04
			c0,1.461-1.14,2.48-2.62,2.48s-2.601-1.02-2.601-2.48v-0.04c0-1.479,1.12-2.48,2.601-2.48S108.601-44.719,108.601-43.259z"/>
		<path d="M125.44-35.037h2.841l6.001-14.103h-3.221l-1.28,3.141h-5.921l-1.28-3.141h-3.141L125.44-35.037z M128.681-43.278
			l-1.86,4.541l-1.86-4.541H128.681z"/>
		<path d="M136.119-38.417h3.041v-2.161c0.62,1.48,1.62,2.44,3.42,2.36v-3.181h-0.159c-2.021,0-3.261-1.22-3.261-3.78v-3.961h-3.041
			V-38.417z"/>
		<path d="M144.979-46.099v5.081h-1.28v2.601h1.28v2.74h3.041v-2.74h2.521v-2.601h-2.521v-4.581c0-0.7,0.3-1.04,0.979-1.04
			c0.561,0,1.061,0.14,1.501,0.38v-2.44c-0.641-0.381-1.381-0.62-2.4-0.62C146.24-49.319,144.979-48.579,144.979-46.099z"/>
		<path d="M151.939-47.72l1.3,2.001c1.16-0.841,2.381-1.28,3.381-1.28c0.88,0,1.28,0.32,1.28,0.8v0.04c0,0.66-1.04,0.88-2.221,1.24
			c-1.5,0.44-3.2,1.141-3.2,3.221v0.04c0,2.181,1.76,3.4,3.921,3.4c1.36,0,2.84-0.46,4-1.24l-1.16-2.1c-1.06,0.62-2.12,1-2.9,1
			c-0.74,0-1.12-0.32-1.12-0.74v-0.04c0-0.601,1.021-0.88,2.181-1.28c1.5-0.5,3.24-1.221,3.24-3.181v-0.04
			c0-2.381-1.78-3.461-4.101-3.461C155.04-49.34,153.359-48.84,151.939-47.72z"/>
	</g>

	<g>
		<path fill="#808184" d="M0.989-1.574h2.429c2.199,0,3.718-1.509,3.718-3.479v-0.02c0-1.969-1.519-3.498-3.718-3.498H0.989V-1.574z
			 M1.779-2.304v-5.537h1.639c1.77,0,2.898,1.199,2.898,2.749v0.02c0,1.549-1.129,2.769-2.898,2.769H1.779z"/>
		<path fill="#808184" d="M9.81-1.574h5.058v-0.72H10.6v-2.389h3.817v-0.72H10.6v-2.448h4.317v-0.72H9.81V-1.574z"/>
		<path fill="#808184" d="M17.509-1.574h2.619c1.579,0,2.618-0.84,2.618-2.219v-0.02c0-1.51-1.26-2.289-2.748-2.289h-1.699V-8.57
			h-0.79V-1.574z M20.027-5.382c1.159,0,1.919,0.619,1.919,1.539v0.02c0,1-0.749,1.52-1.879,1.52h-1.769v-3.078H20.027z"/>
		<path fill="#808184" d="M27.078-1.524h0.739l3.188-7.046h-0.85l-0.819,1.849h-3.808l-0.83-1.849h-0.81L27.078-1.524z
			 M29.027-6.002l-1.59,3.559l-1.599-3.559H29.027z"/>
		<path fill="#808184" d="M33.39-1.574h3.009c0.859,0,1.549-0.26,1.988-0.699c0.34-0.34,0.54-0.83,0.54-1.38v-0.02
			c0-1.159-0.8-1.839-1.898-2.039l2.148-2.858h-0.97l-2.028,2.719H34.18V-8.57h-0.79V-1.574z M36.328-5.143
			c1.05,0,1.799,0.54,1.799,1.439v0.021c0,0.859-0.659,1.379-1.789,1.379H34.18v-2.839H36.328z"/>
		<path fill="#808184" d="M43.398-2.304h-2.35v0.729h5.497v-0.729h-2.349V-8.57h-0.799V-2.304z"/>
		<path fill="#808184" d="M49.029-1.574h0.8l2.549-3.817l2.548,3.817h0.8V-8.57h-0.789v5.667l-2.549-3.748h-0.04l-2.549,3.738V-8.57
			h-0.77V-1.574z"/>
		<path fill="#808184" d="M58.709-1.574h5.058v-0.72h-4.268v-2.389h3.817v-0.72h-3.817v-2.448h4.317v-0.72h-5.107V-1.574z"/>
		<path fill="#808184" d="M66.409-1.574h0.74l4.407-5.606v5.606h0.77V-8.57h-0.63l-4.518,5.737V-8.57h-0.77V-1.574z"/>
		<path fill="#808184" d="M77.159-2.304h-2.35v0.729h5.497v-0.729h-2.349V-8.57h-0.799V-2.304z"/>
		<path fill="#808184" d="M86.479-5.092v0.02c0,1.929,1.449,3.618,3.578,3.618s3.558-1.669,3.558-3.599v-0.02
			c0-1.929-1.449-3.618-3.578-3.618S86.479-7.021,86.479-5.092z M92.796-5.092v0.02c0,1.589-1.159,2.889-2.759,2.889
			c-1.599,0-2.738-1.279-2.738-2.869v-0.02c0-1.589,1.159-2.889,2.759-2.889C91.656-7.961,92.796-6.682,92.796-5.092z"/>
		<path fill="#808184" d="M96.289-1.574h5.027v-0.729h-4.237v-2.499h3.788v-0.72h-3.788V-8.57h-0.79V-1.574z"/>
	</g>

	<g>
		<path fill="#808184" d="M0.563-62.484v0.024c0,1.307,1.08,2.003,2.65,2.003c0.792,0,1.355-0.108,1.907-0.264v0.216
			c0,1.115-0.684,1.69-1.847,1.69c-0.731,0-1.308-0.191-1.883-0.455l-0.276,0.755c0.684,0.312,1.355,0.516,2.255,0.516
			c0.876,0,1.547-0.228,2.003-0.684c0.42-0.419,0.636-1.02,0.636-1.811v-3.79H5.121v0.936c-0.432-0.563-1.151-1.067-2.242-1.067
			C1.727-64.415,0.563-63.756,0.563-62.484z M5.133-62.005v0.601c-0.455,0.132-1.067,0.264-1.822,0.264
			c-1.164,0-1.812-0.504-1.812-1.283v-0.024c0-0.779,0.72-1.235,1.56-1.235C4.197-63.684,5.133-62.988,5.133-62.005z"/>
		<path fill="#808184" d="M8.243-62.64v3.741H7.38v0.815h0.863v1.871h0.923v-1.871h1.968v-0.815H9.166v-3.622
			c0-0.755,0.42-1.031,1.044-1.031c0.312,0,0.575,0.061,0.899,0.216v-0.791c-0.324-0.168-0.672-0.265-1.115-0.265
			C8.998-64.392,8.243-63.899,8.243-62.64z"/>
		<path fill="#808184" d="M15.972-63.06l0.588,0.695c0.875-0.792,1.715-1.188,2.878-1.188c1.128,0,1.871,0.6,1.871,1.428v0.023
			c0,0.779-0.42,1.224-2.183,1.596c-1.931,0.419-2.818,1.043-2.818,2.422v0.024c0,1.319,1.163,2.291,2.758,2.291
			c1.224,0,2.1-0.348,2.951-1.031l-0.552-0.732c-0.78,0.636-1.56,0.912-2.423,0.912c-1.092,0-1.787-0.6-1.787-1.355v-0.024
			c0-0.791,0.432-1.235,2.278-1.631c1.871-0.407,2.735-1.091,2.735-2.375v-0.023c0-1.439-1.2-2.375-2.867-2.375
			C18.07-64.403,16.979-63.959,15.972-63.06z"/>
		<path fill="#808184" d="M24.047-55.528h0.924v-3.634c0.407,0.672,1.056,1.211,2.123,1.211c1.499,0,2.374-1.007,2.374-2.482v-3.85
			h-0.923v3.622c0,1.151-0.624,1.871-1.716,1.871c-1.067,0-1.858-0.779-1.858-1.943v-3.55h-0.924V-55.528z"/>
		<path fill="#808184" d="M30.972-62.484v0.024c0,1.307,1.08,2.003,2.65,2.003c0.792,0,1.355-0.108,1.907-0.264v0.216
			c0,1.115-0.684,1.69-1.847,1.69c-0.731,0-1.308-0.191-1.883-0.455l-0.276,0.755c0.684,0.312,1.355,0.516,2.255,0.516
			c0.876,0,1.547-0.228,2.003-0.684c0.42-0.419,0.636-1.02,0.636-1.811v-3.79h-0.888v0.936c-0.432-0.563-1.151-1.067-2.242-1.067
			C32.135-64.415,30.972-63.756,30.972-62.484z M35.541-62.005v0.601c-0.455,0.132-1.067,0.264-1.822,0.264
			c-1.164,0-1.812-0.504-1.812-1.283v-0.024c0-0.779,0.72-1.235,1.56-1.235C34.605-63.684,35.541-62.988,35.541-62.005z"/>
		<path fill="#808184" d="M37.62-58.083h0.983l1.631-4.977l1.667,5.001h0.768l1.68-5.001l1.631,4.977h0.959l-2.183-6.248h-0.804
			l-1.667,4.894l-1.679-4.894h-0.815L37.62-58.083z"/>
		<path fill="#808184" d="M48.479-58.083h0.924v-1.079c0.407,0.672,1.056,1.211,2.123,1.211c1.499,0,2.374-1.007,2.374-2.482v-3.85
			h-0.923v3.622c0,1.151-0.624,1.871-1.716,1.871c-1.067,0-1.858-0.779-1.858-1.943v-3.55h-0.924V-58.083z"/>
		<path fill="#808184" d="M55.487-61.201v0.024c0,1.787,1.26,3.226,2.975,3.226c1.835,0,2.891-1.463,2.891-3.273
			c0-0.12,0-0.192-0.013-0.3h-4.917c0.132-1.344,1.079-2.1,2.183-2.1c0.852,0,1.451,0.349,1.955,0.876l0.576-0.516
			c-0.624-0.695-1.38-1.163-2.555-1.163C56.879-64.427,55.487-63.12,55.487-61.201z M60.417-60.841
			c-0.096,1.127-0.744,2.11-1.979,2.11c-1.079,0-1.895-0.899-2.015-2.11H60.417z"/>
		<path fill="#808184" d="M62.591-61.201v0.024c0,1.787,1.26,3.226,2.975,3.226c1.835,0,2.891-1.463,2.891-3.273
			c0-0.12,0-0.192-0.013-0.3h-4.917c0.132-1.344,1.079-2.1,2.183-2.1c0.852,0,1.451,0.349,1.955,0.876l0.576-0.516
			c-0.624-0.695-1.38-1.163-2.555-1.163C63.982-64.427,62.591-63.12,62.591-61.201z M67.521-60.841
			c-0.096,1.127-0.744,2.11-1.979,2.11c-1.079,0-1.895-0.899-2.015-2.11H67.521z"/>
		<path fill="#808184" d="M73.283-63.06l0.588,0.695c0.875-0.792,1.715-1.188,2.878-1.188c1.128,0,1.871,0.6,1.871,1.428v0.023
			c0,0.779-0.42,1.224-2.183,1.596c-1.931,0.419-2.818,1.043-2.818,2.422v0.024c0,1.319,1.163,2.291,2.758,2.291
			c1.224,0,2.1-0.348,2.951-1.031l-0.552-0.732c-0.78,0.636-1.56,0.912-2.423,0.912c-1.092,0-1.787-0.6-1.787-1.355v-0.024
			c0-0.791,0.432-1.235,2.278-1.631c1.871-0.407,2.735-1.091,2.735-2.375v-0.023c0-1.439-1.2-2.375-2.867-2.375
			C75.382-64.403,74.291-63.959,73.283-63.06z"/>
		<path fill="#808184" d="M81.623-62.64v3.741H80.76v0.815h0.863v1.871h0.923v-1.871h1.968v-0.815h-1.968v-3.622
			c0-0.755,0.42-1.031,1.044-1.031c0.312,0,0.575,0.061,0.899,0.216v-0.791c-0.324-0.168-0.672-0.265-1.115-0.265
			C82.379-64.392,81.623-63.899,81.623-62.64z"/>
		<path fill="#808184" d="M85.679-62.484v0.024c0,1.307,1.08,2.003,2.65,2.003c0.792,0,1.355-0.108,1.907-0.264v0.216
			c0,1.115-0.684,1.69-1.847,1.69c-0.731,0-1.308-0.191-1.883-0.455l-0.276,0.755c0.684,0.312,1.355,0.516,2.255,0.516
			c0.876,0,1.547-0.228,2.003-0.684c0.42-0.419,0.636-1.02,0.636-1.811v-3.79h-0.888v0.936c-0.432-0.563-1.151-1.067-2.242-1.067
			C86.842-64.415,85.679-63.756,85.679-62.484z M90.248-62.005v0.601c-0.455,0.132-1.067,0.264-1.822,0.264
			c-1.164,0-1.812-0.504-1.812-1.283v-0.024c0-0.779,0.72-1.235,1.56-1.235C89.312-63.684,90.248-62.988,90.248-62.005z"/>
		<path fill="#808184" d="M93.359-62.64v3.741h-0.863v0.815h0.863v1.871h0.923v-1.871h1.968v-0.815h-1.968v-3.622
			c0-0.755,0.42-1.031,1.044-1.031c0.312,0,0.575,0.061,0.899,0.216v-0.791c-0.324-0.168-0.672-0.265-1.115-0.265
			C94.115-64.392,93.359-63.899,93.359-62.64z"/>
		<path fill="#808184" d="M97.319-61.201v0.024c0,1.787,1.26,3.226,2.975,3.226c1.835,0,2.891-1.463,2.891-3.273
			c0-0.12,0-0.192-0.013-0.3h-4.917c0.132-1.344,1.079-2.1,2.183-2.1c0.852,0,1.451,0.349,1.955,0.876l0.576-0.516
			c-0.624-0.695-1.38-1.163-2.555-1.163C98.711-64.427,97.319-63.12,97.319-61.201z M102.249-60.841
			c-0.096,1.127-0.744,2.11-1.979,2.11c-1.079,0-1.895-0.899-2.015-2.11H102.249z"/>
		<path fill="#808184" d="M108.431-60.77v4.882h0.947v-4.821c0-1.812,0.972-2.831,2.566-2.831c1.547,0,2.53,0.936,2.53,2.771v4.882
			h0.948v-4.81c0-2.446-1.403-3.718-3.502-3.718C109.846-64.415,108.431-63.144,108.431-60.77z"/>
		<path fill="#808184" d="M117.515-58.083h0.924v-1.079c0.407,0.672,1.056,1.211,2.123,1.211c1.499,0,2.374-1.007,2.374-2.482v-3.85
			h-0.923v3.622c0,1.151-0.624,1.871-1.716,1.871c-1.067,0-1.858-0.779-1.858-1.943v-3.55h-0.924V-58.083z"/>
		<path fill="#808184" d="M124.931-55.708h1.056v-1.02h-1.056V-55.708z M124.99-58.083h0.924v-6.2h-0.924V-58.083z"/>
		<path fill="#808184" d="M127.451-58.083h1.02l2.087-5.145l2.099,5.145h0.995l-2.698-6.248h-0.815L127.451-58.083z"/>
		<path fill="#808184" d="M134.362-61.201v0.024c0,1.787,1.26,3.226,2.975,3.226c1.835,0,2.891-1.463,2.891-3.273
			c0-0.12,0-0.192-0.013-0.3h-4.917c0.132-1.344,1.079-2.1,2.183-2.1c0.852,0,1.451,0.349,1.955,0.876l0.576-0.516
			c-0.624-0.695-1.38-1.163-2.555-1.163C135.754-64.427,134.362-63.12,134.362-61.201z M139.292-60.841
			c-0.096,1.127-0.744,2.11-1.979,2.11c-1.079,0-1.895-0.899-2.015-2.11H139.292z"/>
		<path fill="#808184" d="M141.85-58.083h0.924v-1.619c0.456,1.032,1.355,1.775,2.53,1.728v-0.995h-0.071
			c-1.355,0-2.459-0.972-2.459-2.843v-2.471h-0.924V-58.083z"/>
		<path fill="#808184" d="M146.194-63.491l0.468,0.659c0.672-0.504,1.415-0.792,2.146-0.792c0.744,0,1.283,0.384,1.283,0.984v0.023
			c0,0.624-0.731,0.863-1.547,1.092c-0.972,0.275-2.051,0.611-2.051,1.751v0.023c0,1.067,0.888,1.775,2.111,1.775
			c0.755,0,1.595-0.264,2.23-0.684l-0.42-0.695c-0.575,0.371-1.235,0.6-1.835,0.6c-0.731,0-1.199-0.384-1.199-0.899v-0.024
			c0-0.588,0.768-0.815,1.595-1.067c0.96-0.288,1.991-0.659,1.991-1.775v-0.023c0-1.176-0.972-1.859-2.207-1.859
			C147.873-64.403,146.89-64.056,146.194-63.491z"/>
		<path fill="#808184" d="M152.71-55.708h1.056v-1.02h-1.056V-55.708z M152.77-58.083h0.924v-6.2h-0.924V-58.083z"/>
		<path fill="#808184" d="M156.166-62.64v3.741h-0.863v0.815h0.863v1.871h0.923v-1.871h1.968v-0.815h-1.968v-3.622
			c0-0.755,0.42-1.031,1.044-1.031c0.312,0,0.575,0.061,0.899,0.216v-0.791c-0.324-0.168-0.672-0.265-1.115-0.265
			C156.922-64.392,156.166-63.899,156.166-62.64z"/>
		<path fill="#808184" d="M165.331-58.083h0.983l-2.603-6.404c-0.527-1.283-1.127-1.751-2.062-1.751
			c-0.516,0-0.899,0.108-1.319,0.312l0.312,0.732c0.3-0.156,0.576-0.229,0.972-0.229c0.552,0,0.899,0.288,1.271,1.164l-2.818,6.176
			h1.019l2.255-5.169L165.331-58.083z"/>
	</g>

</symbol>

<g>
	<path fill="#2168A8" d="M40,20v15h15V10h-5v10H40z M50,30h-5v-5h5V30z"/>
	<polygon fill="#2168A8" points="15,65 15,25 35,25 35,20 15,20 15,15 45,15 45,10 10,10 10,65 	"/>
	<path fill="#2168A8" d="M40,40v5h10v5H30v15h25V40H40z M50,60H35v-5h15V60z"/>
	<path fill="#2168A8" d="M35,45V30H20v35h5V45H35z M25,35h5v5h-5V35z"/>
	<path fill="#2168A8" d="M0,0v75h65V0H0z M60,70H5V5h55V70z"/>
</g>

<use xlink:href="#New_Symbol"  width="169.396" height="64.784" id="XMLID_13_" x="0.563" y="-66.238" transform="matrix(1 0 0 -1 77 5)" overflow="visible"/>

</svg>
